<svg width="104" height="38" viewBox="0 0 104 38" xmlns="http://www.w3.org/2000/svg">
    <path d="M15.134 13.235c0-3.213-3.574-4.705-6.312-4.705C2.738 8.53 0 12.432 0 17.94c0 5.011 2.548 9.372 8.251 9.372 3.613 0 5.705-1.683 7.15-4.705l.114-.153-1.217-.727-.115.192c-.798 1.338-2.433 2.103-4.03 2.103-3.65 0-5.172-3.863-5.172-7 0-.918.114-2.678.533-4.208.456-1.568 1.216-2.716 2.471-2.716.723 0 1.255.46 1.598 1.148.19.344.304.765.418 1.11l.304 1.07c.342 1.186 1.103 1.951 2.472 1.951 1.217 0 2.357-.803 2.357-2.142zm.837 13.694h8.366v-1.568h-.19c-1.217 0-1.56-.382-1.56-1.569V0l-6.616 2.065v1.53h.228c1.217 0 1.56.383 1.56 1.53v18.667c0 1.187-.343 1.57-1.56 1.57h-.228v1.567zM33.576 8.53c-5.741 0-8.631 4.36-8.631 9.41 0 4.973 2.775 9.372 8.404 9.372 3.916 0 5.703-2.066 7.262-5.088l.114-.191-1.14-.727-.115.191c-.988 1.454-3.004 2.257-4.79 2.257-2.549 0-3.88-2.218-4.374-4.475l10.305-3.902v-.42c0-4.017-3.042-6.427-7.035-6.427zm-1.825 8.377c-.57.268-1.14.536-1.673.727 0-.306-.038-.65-.038-.994 0-2.257 1.065-6.35 3.802-6.35 1.217 0 2.054.956 2.054 2.103 0 1.377-.912 2.487-2.167 3.329-.57.458-1.294.84-1.978 1.185zM50.194 8.53c-5.743 0-8.632 4.36-8.632 9.41 0 4.973 2.776 9.372 8.403 9.372 3.917 0 5.705-2.066 7.264-5.088l.114-.191-1.141-.727-.114.191c-.989 1.454-3.004 2.257-4.791 2.257-2.548 0-3.88-2.218-4.374-4.475l10.306-3.902v-.42c0-4.017-3.042-6.427-7.035-6.427zm-1.825 8.377c-.571.268-1.142.536-1.674.727 0-.306-.038-.65-.038-.994 0-2.257 1.065-6.35 3.803-6.35 1.217 0 2.053.956 2.053 2.103 0 1.377-.912 2.487-2.167 3.329-.57.458-1.293.84-1.977 1.185zm8.365 15.951c0 3.213 3.422 4.285 6.046 4.285 5.286 0 14.108-2.525 18.86-5.126 1.56 3.366 4.602 4.476 8.215 4.476 2.357 0 5.438-.612 6.882-2.755.343-.612.571-1.3.571-2.027 0-3.137-3.84-4.132-6.274-4.132-1.788 0-3.84.383-5.476 1.148-.152-1.338-.19-2.64-.19-3.978V13.885c0-3.557-2.168-5.355-5.742-5.355-2.13 0-4.145.803-5.476 2.372-1.103-1.837-3.27-2.372-5.286-2.372-1.635 0-3.308.497-4.601 1.453V8.836l-6.578 2.066v1.491h.228c1.14-.038 1.52.421 1.52 1.569v9.83c0 1.148-.38 1.607-1.52 1.57h-.228v1.567h8.366v-1.568h-.229c-1.179.038-1.559-.421-1.559-1.569v-9.83c0-1.607 1.103-3.52 2.89-3.52 2.244 0 2.814 1.493 2.814 3.52v9.83c0 1.148-.38 1.607-1.52 1.57h-.229v1.567h8.366v-1.568h-.229c-1.178.038-1.52-.421-1.52-1.569v-9.907c0-1.568 1.293-3.442 3.003-3.442 1.902 0 2.662 1.797 2.662 3.519v11.4c0 1.72.114 3.48.609 5.201-4.411 1.836-9.05 3.06-13.88 3.52-.456.038-.95.076-1.444.076-2.168 0-4.64-.727-4.64-3.022v-.306l-.038-.038c-.418-.574-1.103-.804-1.749-.804-1.635 0-2.624 1.454-2.624 2.87zm29.052-2.6c.913-.345 1.94-.498 2.928-.498 1.902 0 4.411.65 4.411 2.64 0 1.568-1.56 2.486-3.118 2.486-2.7 0-3.803-2.257-4.221-4.629zm8.86-14.88c-4.031 0-7.187 2.332-7.187 6.426 0 3.557 2.851 5.47 6.274 5.47 1.483 0 2.814-.383 3.917-1.34.57.804 1.482 1.187 2.51 1.187 1.444 0 2.851-.46 3.764-1.684l.076-.114-.837-1.071-.19.153c-.228.152-.456.306-.684.306-.19 0-.267-.077-.342-.306 0-.077-.039-.23-.039-.345v-9.716c0-3.978-2.585-5.814-6.502-5.814-3.042 0-6.997 1.148-6.997 4.897 0 1.3 1.483 1.644 2.32 1.644.875 0 2.51-.383 2.51-1.683 0-1.568.342-3.328 2.09-3.328.876 0 1.332.536 1.56 1.262.076.383.152.842.19 1.225v3.175c-.798-.268-1.635-.345-2.433-.345zm2.433 8.376c0 .995-1.217 1.798-2.205 1.798-1.94 0-2.396-1.912-2.396-3.633 0-2.41 1.027-4.706 3.727-4.706.304 0 .608.039.874.115v6.426z" fill="#59E5BF" fill-rule="evenodd"/>
</svg>
